<svg width="248" height="248" viewBox="0 0 248 248" fill="none" xmlns="http://www.w3.org/2000/svg">
<g clip-path="url(#clip0_1_100)">
<path d="M126.219 161.891C148.45 161.891 166.472 143.87 166.472 121.639C166.472 99.4075 148.45 81.3856 126.219 81.3856C103.988 81.3856 85.9659 99.4075 85.9659 121.639C85.9659 143.87 103.988 161.891 126.219 161.891Z" fill="#FFB6B6"/>
<path d="M103.111 167.844L101.292 149.461L137.607 142.671L159.051 194.881L121.758 237.769L95.1862 185.558L103.111 167.844Z" fill="#FFB6B6"/>
<path d="M100.709 158.663L108.648 160.457C108.648 160.457 102.407 140.666 104.526 138.776C106.644 136.887 111.835 139.864 111.835 139.864L117.29 145.98L123.935 139.215C123.935 139.215 131.149 130.245 133.973 127.726C136.798 125.206 132.261 115.855 132.261 115.855C132.261 115.855 174.166 104.556 158.573 84.2309C158.573 84.2309 149.431 68.2953 146.454 73.4864C143.477 78.6775 139.927 70.433 139.927 70.433L129.087 72.4943C129.087 72.4943 107.692 59.8797 87.3865 86.866C67.0808 113.852 100.709 158.663 100.709 158.663H100.709V158.663Z" fill="#BDAC81"/>
<path d="M201.924 220.473C179.926 238.308 152.711 248 124 248C97.7829 248 72.8104 239.917 51.9215 224.934C51.9588 224.543 51.9961 224.156 52.0287 223.769C52.5835 217.709 53.0776 211.816 53.4039 206.931C54.6672 187.963 98.9203 175.32 98.9203 175.32C98.9203 175.32 99.1208 175.521 99.5217 175.87C101.964 178.015 111.88 185.79 129.268 187.963C144.772 189.902 149.877 180.704 151.42 176.299C151.886 174.957 152.026 174.057 152.026 174.057L197.542 195.552C200.512 199.794 201.673 208.931 201.901 219.2C201.91 219.625 201.92 220.044 201.924 220.473V220.473Z" fill="#00265D"/>
<path d="M211.681 36.319C188.261 12.8988 157.121 0 124 0C90.8789 0 59.7391 12.8988 36.319 36.319C12.8988 59.7391 0 90.879 0 124C0 154.231 10.7451 182.811 30.436 205.379C32.3146 207.537 34.2772 209.639 36.319 211.681C36.7991 212.161 37.2839 212.641 37.7734 213.108C39.0787 214.371 40.4072 215.606 41.7591 216.804C42.5796 217.536 43.4094 218.254 44.2484 218.958C44.9057 219.513 45.563 220.058 46.2297 220.594C46.2436 220.608 46.253 220.617 46.2669 220.627C48.1176 222.118 50.0009 223.554 51.9215 224.934C72.8104 239.917 97.7829 248 124 248C152.711 248 179.926 238.308 201.924 220.473C203.719 219.019 205.476 217.508 207.201 215.946C208.726 214.567 210.217 213.145 211.681 211.681C212.143 211.22 212.604 210.753 213.056 210.283C214.315 208.987 215.536 207.667 216.73 206.329C236.947 183.618 248 154.66 248 124C248 90.879 235.101 59.7391 211.681 36.319V36.319ZM216.427 205.169C215.261 206.493 214.068 207.798 212.846 209.071C210.945 211.052 208.982 212.972 206.954 214.823C206.185 215.532 205.406 216.222 204.619 216.907C203.724 217.685 202.819 218.45 201.901 219.2C194.661 225.144 186.732 230.272 178.252 234.449C174.901 236.103 171.465 237.609 167.95 238.956C154.296 244.196 139.477 247.068 124 247.068C109.064 247.068 94.7435 244.392 81.4904 239.497C76.0502 237.493 70.7919 235.111 65.7433 232.383C65.0021 231.983 64.2656 231.577 63.5337 231.162C59.6832 228.98 55.9585 226.598 52.383 224.025C52.2665 223.941 52.1453 223.853 52.0287 223.769C49.4835 221.932 47.0081 219.997 44.6167 217.965C43.7403 217.224 42.8733 216.473 42.0202 215.704C40.631 214.469 39.2698 213.196 37.9412 211.891C35.4239 209.425 33.0185 206.856 30.7203 204.185C12.1623 182.63 0.932331 154.604 0.932331 124C0.932331 56.1403 56.1403 0.932331 124 0.932331C191.86 0.932331 247.068 56.1403 247.068 124C247.068 155.075 235.493 183.492 216.427 205.169Z" fill="#3F3D56"/>
</g>
<defs>
<clipPath id="clip0_1_100">
<rect width="248" height="248" fill="white"/>
</clipPath>
</defs>
</svg>
