<svg width="248" height="248" viewBox="0 0 248 248" fill="none" xmlns="http://www.w3.org/2000/svg">
<g clip-path="url(#clip0_1_41)">
<g clip-path="url(#clip1_1_41)">
<path d="M126.728 161.891C149.049 161.891 167.143 143.87 167.143 121.639C167.143 99.4075 149.049 81.3856 126.728 81.3856C104.407 81.3856 86.3126 99.4075 86.3126 121.639C86.3126 143.87 104.407 161.891 126.728 161.891Z" fill="#A77676"/>
<path d="M103.527 167.844L101.701 149.461L138.162 142.671L159.692 194.881L122.249 237.769L95.57 185.558L103.527 167.844Z" fill="#A77676"/>
<path d="M101.115 158.663L109.087 160.457C109.087 160.457 102.82 140.666 104.947 138.776C107.074 136.887 112.286 139.864 112.286 139.864L117.763 145.98L124.435 139.215C124.435 139.215 131.678 130.245 134.514 127.726C137.349 125.206 132.794 115.855 132.794 115.855C132.794 115.855 174.868 104.556 159.212 84.2309C159.212 84.2309 150.033 68.2952 147.044 73.4864C144.055 78.6775 140.491 70.4329 140.491 70.4329L129.607 72.4943C129.607 72.4943 108.127 59.8797 87.7389 86.866C67.3513 113.852 101.115 158.663 101.115 158.663Z" fill="#4E4343"/>
<path d="M202.738 220.473C180.651 238.308 153.327 248 124.5 248C98.1771 248 73.104 239.917 52.1309 224.934C52.1683 224.543 52.2058 224.156 52.2385 223.769C52.7955 217.709 53.2916 211.816 53.6192 206.931C54.8877 187.963 99.3192 175.32 99.3192 175.32C99.3192 175.32 99.5204 175.521 99.923 175.87C102.376 178.015 112.331 185.79 129.789 187.963C145.356 189.902 150.481 180.704 152.03 176.299C152.498 174.957 152.639 174.057 152.639 174.057L198.339 195.552C201.32 199.794 202.486 208.931 202.715 219.2C202.724 219.624 202.734 220.044 202.738 220.473V220.473Z" fill="#00265D"/>
<path d="M212.535 36.319C189.02 12.8988 157.755 0 124.5 0C91.2454 0 59.98 12.8988 36.4654 36.319C12.9508 59.7391 0 90.879 0 124C0 154.231 10.7885 182.811 30.5587 205.379C32.4449 207.537 34.4154 209.639 36.4654 211.681C36.9475 212.161 37.4343 212.641 37.9257 213.108C39.2362 214.371 40.5702 215.606 41.9275 216.804C42.7513 217.536 43.5844 218.254 44.4269 218.958C45.0868 219.513 45.7468 220.058 46.4161 220.594C46.4301 220.608 46.4395 220.617 46.4535 220.627C48.3116 222.118 50.2025 223.554 52.1309 224.934C73.104 239.917 98.1771 248 124.5 248C153.327 248 180.651 238.308 202.738 220.473C204.54 219.019 206.305 217.508 208.037 215.946C209.567 214.567 211.065 213.145 212.535 211.681C212.998 211.22 213.461 210.753 213.915 210.283C215.179 208.987 216.405 207.667 217.604 206.329C237.903 183.618 249 154.66 249 124C249 90.879 236.049 59.7391 212.535 36.319V36.319ZM217.299 205.169C216.129 206.493 214.931 207.798 213.705 209.071C211.795 211.052 209.825 212.972 207.789 214.823C207.016 215.532 206.235 216.222 205.444 216.907C204.545 217.685 203.637 218.45 202.715 219.2C195.446 225.144 187.485 230.272 178.971 234.449C175.606 236.103 172.156 237.609 168.627 238.956C154.918 244.196 140.039 247.068 124.5 247.068C109.504 247.068 95.1255 244.392 81.819 239.497C76.3569 237.493 71.0774 235.111 66.0084 232.383C65.2642 231.983 64.5247 231.577 63.7899 231.162C59.9238 228.98 56.1842 226.598 52.5943 224.025C52.4772 223.941 52.3555 223.853 52.2385 223.769C49.683 221.932 47.1977 219.997 44.7966 217.965C43.9167 217.224 43.0461 216.473 42.1896 215.704C40.7948 214.469 39.4281 213.196 38.0942 211.891C35.5668 209.425 33.1516 206.856 30.8442 204.185C12.2113 182.63 0.93609 154.604 0.93609 124C0.93609 56.1403 56.3667 0.932331 124.5 0.932331C192.633 0.932331 248.064 56.1403 248.064 124C248.064 155.075 236.442 183.492 217.299 205.169Z" fill="#3F3D56"/>
</g>
</g>
<defs>
<clipPath id="clip0_1_41">
<rect width="248" height="248" fill="white"/>
</clipPath>
<clipPath id="clip1_1_41">
<rect width="249" height="248" fill="white"/>
</clipPath>
</defs>
</svg>
