<svg width="248" height="248" viewBox="0 0 248 248" fill="none" xmlns="http://www.w3.org/2000/svg">
<g clip-path="url(#clip0_1_82)">
<g clip-path="url(#clip1_1_82)">
<path d="M176.765 177.412H114.765V93.1644L168.374 122.651L176.765 177.412Z" fill="#21202D"/>
<path d="M126.219 162.543C148.45 162.543 166.472 144.449 166.472 122.128C166.472 99.8073 148.45 81.7128 126.219 81.7128C103.988 81.7128 85.9661 99.8073 85.9661 122.128C85.9661 144.449 103.988 162.543 126.219 162.543Z" fill="#493437"/>
<path d="M103.111 168.52L101.293 150.063L137.607 143.245L159.051 195.666L121.758 238.726L95.1863 186.305L103.111 168.52Z" fill="#493437"/>
<path d="M213.056 211.13C212.604 211.603 212.143 212.071 211.681 212.535C210.217 214.004 208.726 215.432 207.201 216.817C184.359 237.617 155.051 249 124 249C95.3728 249 68.228 239.325 46.2669 221.516C46.2529 221.507 46.2436 221.498 46.2296 221.484C45.563 220.945 44.9057 220.398 44.2484 219.841C44.365 219.504 44.4908 219.171 44.6167 218.844C51.6791 200.37 65.6268 191.332 74.0923 187.377C78.2878 185.416 81.1361 184.7 81.1361 184.7L91.0747 166.727L98.0719 179.832L103.228 189.493L124.382 229.122L142.633 183.497L148.287 169.353L149.737 165.73L156.632 171.117L163.158 176.214L176.299 179.126L186.96 181.489L201.439 184.7C207.294 189.488 210.856 198.596 212.846 209.914C212.921 210.316 212.991 210.723 213.056 211.13V211.13Z" fill="#00265D"/>
<path d="M105.045 76.1992C109.949 67.9298 118.954 62.256 128.503 61.4198C138.052 60.5835 147.899 64.6063 154.155 71.8985C157.882 76.244 160.326 81.5658 163.959 85.9909C171.778 95.5135 185.11 101.081 188.526 112.937C190.016 118.11 189.273 123.633 188.519 128.965C187.873 133.535 187.227 138.105 186.58 142.675C186.077 146.231 185.595 149.981 186.923 153.316C188.481 157.229 192.21 159.792 194.621 163.242C198.724 169.112 198.424 177.707 193.922 183.274C191.97 185.688 189.382 187.509 187.335 189.843C185.288 192.177 183.77 195.369 184.627 198.357C186.269 204.082 195.211 205.455 196.192 211.33C196.693 214.334 194.627 217.334 191.919 218.708C189.212 220.082 186.024 220.122 183.013 219.754C171.567 218.357 160.969 211.177 155.396 201.042C149.824 190.907 149.418 178.077 154.339 167.608C158.381 159.009 165.893 151.411 165.811 141.903C165.766 136.723 163.4 131.885 161.086 127.255C156.35 117.779 151.615 108.303 146.879 98.8275C144.342 93.7516 141.398 88.2816 136.175 86.1011C132.139 84.4158 127.559 85.0694 123.241 85.7587C118.924 86.448 114.351 87.119 110.303 85.463C106.254 83.8071 103.195 78.8871 105.124 74.9483" fill="#21202D"/>
<path d="M112.099 76.6311C104.323 74.0608 95.5986 78.1869 90.3336 84.4822C85.0686 90.7776 82.5146 98.854 80.0817 106.703C78.6881 111.199 77.2944 115.695 75.9008 120.191C74.5899 124.42 73.2789 128.65 71.9679 132.879C70.4259 137.854 68.8713 143.139 70.1368 148.192C71.0517 151.845 73.4059 155.161 73.4565 158.928C73.5094 162.862 71.0556 166.316 68.9051 169.605C66.7546 172.894 64.7359 176.802 65.7605 180.6C67.3189 186.376 75.3178 189.552 74.8794 195.52C74.733 197.512 73.5858 199.354 73.6066 201.351C73.6331 203.892 75.6146 206.088 77.9361 207.101C80.2576 208.113 82.869 208.168 85.3996 208.123C93.1619 207.986 100.91 207.061 108.488 205.365C111.403 204.713 114.368 203.913 116.795 202.165C119.221 200.416 121.032 197.52 120.716 194.537C120.224 189.89 115.247 187.254 112.736 183.319C110.27 179.455 110.327 174.558 109.263 170.093C107.801 163.958 104.191 158.602 101.481 152.91C91.2919 131.513 94.8587 104.24 110.204 86.2087C111.561 84.6145 113.043 83.0107 113.609 80.9922C114.175 78.9737 113.445 76.402 111.479 75.6959" fill="#21202D"/>
<path d="M211.681 36.4654C188.261 12.9508 157.121 0 124 0C90.879 0 59.7391 12.9508 36.3189 36.4654C12.8988 59.98 0 91.2454 0 124.5C0 154.853 10.7451 183.549 30.4359 206.207C32.3146 208.374 34.2772 210.485 36.3189 212.535C36.7991 213.017 37.2839 213.499 37.7734 213.967C39.0787 215.235 40.4072 216.476 41.7591 217.678C42.5796 218.413 43.4093 219.134 44.2484 219.841C44.9057 220.398 45.563 220.945 46.2296 221.484C46.2436 221.498 46.253 221.507 46.2669 221.516C68.228 239.325 95.3728 249 124 249C155.051 249 184.359 237.617 207.201 216.817C208.726 215.432 210.217 214.004 211.681 212.535C212.143 212.071 212.604 211.603 213.056 211.13C214.315 209.829 215.536 208.505 216.73 207.161C236.947 184.358 248 155.283 248 124.5C248 91.2454 235.101 59.98 211.681 36.4654V36.4654ZM216.427 205.996C215.261 207.325 214.068 208.636 212.846 209.914C210.945 211.903 208.982 213.831 206.954 215.689C206.185 216.401 205.406 217.093 204.619 217.781C196.661 224.732 187.804 230.667 178.252 235.394C174.901 237.055 171.465 238.567 167.95 239.92C154.296 245.181 139.477 248.064 124 248.064C109.064 248.064 94.7435 245.377 81.4904 240.463C76.0502 238.45 70.7919 236.059 65.7433 233.32C65.0021 232.918 64.2656 232.511 63.5337 232.094C59.6832 229.904 55.9585 227.512 52.383 224.928C49.7119 223.005 47.12 220.978 44.6167 218.844C43.7403 218.1 42.8733 217.346 42.0202 216.574C40.631 215.333 39.2698 214.056 37.9412 212.745C35.4239 210.269 33.0185 207.69 30.7203 205.008C12.1623 183.366 0.932331 155.227 0.932331 124.5C0.932331 56.3667 56.1403 0.93609 124 0.93609C191.86 0.93609 247.068 56.3667 247.068 124.5C247.068 155.7 235.493 184.232 216.427 205.996V205.996Z" fill="#3F3D56"/>
</g>
</g>
<defs>
<clipPath id="clip0_1_82">
<rect width="248" height="248" fill="white"/>
</clipPath>
<clipPath id="clip1_1_82">
<rect width="248" height="249" fill="white"/>
</clipPath>
</defs>
</svg>
