<svg width="38" height="38" viewBox="0 0 38 38" fill="none" xmlns="http://www.w3.org/2000/svg">
<path d="M15.0812 21.7945C14.9322 21.9436 14.8484 22.1458 14.8484 22.3566C14.8484 22.5674 14.9322 22.7696 15.0812 22.9187C15.2303 23.0678 15.4325 23.1515 15.6433 23.1515C15.8541 23.1515 16.0563 23.0678 16.2054 22.9187C17.1396 21.9845 18.0658 21.0504 19 20.132L21.7946 22.9187C21.8684 22.9925 21.956 23.0511 22.0525 23.091C22.1489 23.131 22.2523 23.1515 22.3567 23.1515C22.461 23.1515 22.5644 23.131 22.6609 23.091C22.7573 23.0511 22.8449 22.9925 22.9187 22.9187C22.9926 22.8449 23.0511 22.7573 23.0911 22.6608C23.131 22.5644 23.1516 22.461 23.1516 22.3566C23.1516 22.2522 23.131 22.1489 23.0911 22.0524C23.0511 21.956 22.9926 21.8684 22.9187 21.7945C21.9846 20.8762 21.0504 19.9341 20.1321 19C20.7812 18.335 21.4304 17.6937 22.0796 17.0445C22.3646 16.7595 22.6337 16.4745 22.9187 16.2054C23.0678 16.0563 23.1516 15.8541 23.1516 15.6433C23.1516 15.4325 23.0678 15.2303 22.9187 15.0812C22.7697 14.9321 22.5675 14.8484 22.3567 14.8484C22.1458 14.8484 21.9436 14.9321 21.7946 15.0812L19 17.8805L16.2054 15.0812C16.0563 14.9321 15.8541 14.8484 15.6433 14.8484C15.4325 14.8484 15.2303 14.9321 15.0812 15.0812C14.9322 15.2303 14.8484 15.4325 14.8484 15.6433C14.8484 15.8541 14.9322 16.0563 15.0812 16.2054L17.8806 19L15.0812 21.7945Z" fill="white"/>
<path d="M19 34.7272C15.8895 34.7269 12.849 33.8042 10.2628 32.0759C7.67671 30.3476 5.66116 27.8912 4.47104 25.0174C3.28093 22.1436 2.9697 18.9814 3.57672 15.9308C4.18374 12.8801 5.68174 10.0779 7.88129 7.87856C10.0809 5.67922 12.8832 4.1815 15.9339 3.57479C18.9847 2.96808 22.1468 3.27962 25.0205 4.47003C27.8942 5.66043 30.3504 7.67624 32.0784 10.2625C33.8065 12.8488 34.7288 15.8895 34.7288 19C34.7238 23.1698 33.065 27.1674 30.1163 30.1158C27.1676 33.0642 23.1699 34.7226 19 34.7272ZM19 4.85605C16.2027 4.85636 13.4682 5.68615 11.1425 7.24049C8.81674 8.79484 7.00413 11.0039 5.93385 13.5884C4.86357 16.1729 4.5837 19.0167 5.12963 21.7603C5.67555 24.5038 7.02275 27.0239 9.00088 29.0018C10.979 30.9797 13.4992 32.3266 16.2428 32.8722C18.9864 33.4178 21.8302 33.1377 24.4146 32.0671C26.999 30.9965 29.2078 29.1837 30.7619 26.8577C32.316 24.5318 33.1455 21.7973 33.1455 19C33.1409 15.2499 31.649 11.6548 28.9972 9.00323C26.3453 6.35169 22.7501 4.86024 19 4.85605Z" fill="white"/>
</svg>
