<svg width="32" height="32" viewBox="0 0 32 32" fill="none" xmlns="http://www.w3.org/2000/svg">
<path d="M29.1429 1.71423H2.85721C2.22507 1.71423 1.71436 2.22495 1.71436 2.85709V29.1428C1.71436 29.7749 2.22507 30.2857 2.85721 30.2857H29.1429C29.7751 30.2857 30.2858 29.7749 30.2858 29.1428V2.85709C30.2858 2.22495 29.7751 1.71423 29.1429 1.71423ZM25.8429 10.0535H23.5608C21.7715 10.0535 21.4251 10.9035 21.4251 12.1535V14.9071H25.6965L25.1394 19.2178H21.4251V30.2857H16.9715V19.2214H13.2465V14.9071H16.9715V11.7285C16.9715 8.03923 19.2251 6.02852 22.5179 6.02852C24.0965 6.02852 25.4501 6.14638 25.8465 6.19995V10.0535H25.8429Z" fill="#4267B2"/>
</svg>
