<svg width="212" height="44" viewBox="0 0 212 44" fill="none" xmlns="http://www.w3.org/2000/svg">
<path d="M24.1758 31.5H21.4102V20.4727C21.4102 20.1055 21.4141 19.7383 21.4219 19.3711C21.4297 19.0039 21.4375 18.6445 21.4453 18.293C21.4609 17.9414 21.4805 17.6055 21.5039 17.2852C21.3398 17.4648 21.1367 17.6602 20.8945 17.8711C20.6602 18.082 20.4102 18.3008 20.1445 18.5273L18.1758 20.0977L16.793 18.3516L21.8789 14.3672H24.1758V31.5Z" fill="#000033" fill-opacity="0.4"/>
<rect x="0.5" y="0.5" width="43" height="43" rx="3.5" stroke="#000033" stroke-opacity="0.5"/>
<rect x="58.5" y="0.5" width="43" height="43" rx="3.5" fill="#000033"/>
<path d="M85.6797 31.5H74.0781V29.4258L78.5195 24.9258C79.3789 24.0508 80.0859 23.2969 80.6406 22.6641C81.1953 22.0234 81.6055 21.418 81.8711 20.8477C82.1445 20.2773 82.2812 19.6562 82.2812 18.9844C82.2812 18.1562 82.043 17.5312 81.5664 17.1094C81.0898 16.6797 80.4609 16.4648 79.6797 16.4648C78.9375 16.4648 78.25 16.6133 77.6172 16.9102C76.9922 17.1992 76.3438 17.6133 75.6719 18.1523L74.1602 16.3359C74.6367 15.9297 75.1445 15.5586 75.6836 15.2227C76.2305 14.8867 76.8398 14.6211 77.5117 14.4258C78.1836 14.2227 78.9492 14.1211 79.8086 14.1211C80.8945 14.1211 81.832 14.3164 82.6211 14.707C83.4102 15.0898 84.0156 15.625 84.4375 16.3125C84.8672 17 85.082 17.8008 85.082 18.7148C85.082 19.6367 84.8984 20.4883 84.5312 21.2695C84.1641 22.0508 83.6406 22.8242 82.9609 23.5898C82.2812 24.3477 81.4727 25.1719 80.5352 26.0625L77.5703 28.957V29.0859H85.6797V31.5Z" fill="white"/>
<rect x="58.5" y="0.5" width="43" height="43" rx="3.5" stroke="#000033"/>
<path d="M118.094 32.0625C118.094 31.2083 118.312 30.6094 118.75 30.2656C119.198 29.9115 119.74 29.7344 120.375 29.7344C121.01 29.7344 121.552 29.9115 122 30.2656C122.458 30.6094 122.688 31.2083 122.688 32.0625C122.688 32.8958 122.458 33.5 122 33.875C121.552 34.2396 121.01 34.4219 120.375 34.4219C119.74 34.4219 119.198 34.2396 118.75 33.875C118.312 33.5 118.094 32.8958 118.094 32.0625ZM127.515 32.0625C127.515 31.2083 127.734 30.6094 128.171 30.2656C128.619 29.9115 129.161 29.7344 129.796 29.7344C130.432 29.7344 130.973 29.9115 131.421 30.2656C131.88 30.6094 132.109 31.2083 132.109 32.0625C132.109 32.8958 131.88 33.5 131.421 33.875C130.973 34.2396 130.432 34.4219 129.796 34.4219C129.161 34.4219 128.619 34.2396 128.171 33.875C127.734 33.5 127.515 32.8958 127.515 32.0625ZM136.936 32.0625C136.936 31.2083 137.155 30.6094 137.593 30.2656C138.04 29.9115 138.582 29.7344 139.218 29.7344C139.853 29.7344 140.395 29.9115 140.843 30.2656C141.301 30.6094 141.53 31.2083 141.53 32.0625C141.53 32.8958 141.301 33.5 140.843 33.875C140.395 34.2396 139.853 34.4219 139.218 34.4219C138.582 34.4219 138.04 34.2396 137.593 33.875C137.155 33.5 136.936 32.8958 136.936 32.0625ZM146.358 32.0625C146.358 31.2083 146.576 30.6094 147.014 30.2656C147.462 29.9115 148.003 29.7344 148.639 29.7344C149.274 29.7344 149.816 29.9115 150.264 30.2656C150.722 30.6094 150.951 31.2083 150.951 32.0625C150.951 32.8958 150.722 33.5 150.264 33.875C149.816 34.2396 149.274 34.4219 148.639 34.4219C148.003 34.4219 147.462 34.2396 147.014 33.875C146.576 33.5 146.358 32.8958 146.358 32.0625Z" fill="#000033" fill-opacity="0.5"/>
<path d="M185.176 31.5H182.41V20.4727C182.41 20.1055 182.414 19.7383 182.422 19.3711C182.43 19.0039 182.438 18.6445 182.445 18.293C182.461 17.9414 182.48 17.6055 182.504 17.2852C182.34 17.4648 182.137 17.6602 181.895 17.8711C181.66 18.082 181.41 18.3008 181.145 18.5273L179.176 20.0977L177.793 18.3516L182.879 14.3672H185.176V31.5ZM202.894 22.9219C202.894 24.3047 202.785 25.543 202.566 26.6367C202.355 27.7227 202.019 28.6445 201.558 29.4023C201.097 30.1602 200.496 30.7383 199.753 31.1367C199.011 31.5352 198.113 31.7344 197.058 31.7344C195.738 31.7344 194.648 31.3867 193.789 30.6914C192.929 29.9883 192.292 28.9805 191.878 27.668C191.464 26.3477 191.257 24.7656 191.257 22.9219C191.257 21.0781 191.445 19.5 191.82 18.1875C192.203 16.8672 192.82 15.8555 193.671 15.1523C194.523 14.4492 195.652 14.0977 197.058 14.0977C198.386 14.0977 199.48 14.4492 200.339 15.1523C201.207 15.8477 201.847 16.8555 202.261 18.1758C202.683 19.4883 202.894 21.0703 202.894 22.9219ZM194.035 22.9219C194.035 24.3672 194.128 25.5742 194.316 26.543C194.511 27.5117 194.832 28.2383 195.277 28.7227C195.722 29.1992 196.316 29.4375 197.058 29.4375C197.8 29.4375 198.394 29.1992 198.839 28.7227C199.285 28.2461 199.605 27.5234 199.8 26.5547C200.003 25.5859 200.105 24.375 200.105 22.9219C200.105 21.4844 200.007 20.2812 199.812 19.3125C199.617 18.3438 199.296 17.6172 198.851 17.1328C198.406 16.6406 197.808 16.3945 197.058 16.3945C196.308 16.3945 195.71 16.6406 195.265 17.1328C194.828 17.6172 194.511 18.3438 194.316 19.3125C194.128 20.2812 194.035 21.4844 194.035 22.9219Z" fill="#000033" fill-opacity="0.4"/>
<rect x="168.5" y="0.5" width="43" height="43" rx="3.5" stroke="#000033" stroke-opacity="0.5"/>
</svg>
