<svg width="32" height="32" viewBox="0 0 32 32" fill="none" xmlns="http://www.w3.org/2000/svg">
<path d="M16 11.2392C13.3786 11.2392 11.2393 13.3785 11.2393 15.9999C11.2393 18.6214 13.3786 20.7607 16 20.7607C18.6215 20.7607 20.7607 18.6214 20.7607 15.9999C20.7607 13.3785 18.6215 11.2392 16 11.2392ZM30.2786 15.9999C30.2786 14.0285 30.2965 12.0749 30.1857 10.1071C30.075 7.82137 29.5536 5.7928 27.8822 4.12137C26.2072 2.44637 24.1822 1.92851 21.8965 1.8178C19.925 1.70708 17.9715 1.72494 16.0036 1.72494C14.0322 1.72494 12.0786 1.70708 10.1107 1.8178C7.82503 1.92851 5.79646 2.44994 4.12503 4.12137C2.45003 5.79637 1.93217 7.82137 1.82146 10.1071C1.71074 12.0785 1.7286 14.0321 1.7286 15.9999C1.7286 17.9678 1.71074 19.9249 1.82146 21.8928C1.93217 24.1785 2.4536 26.2071 4.12503 27.8785C5.80003 29.5535 7.82503 30.0714 10.1107 30.1821C12.0822 30.2928 14.0357 30.2749 16.0036 30.2749C17.975 30.2749 19.9286 30.2928 21.8965 30.1821C24.1822 30.0714 26.2107 29.5499 27.8822 27.8785C29.5572 26.2035 30.075 24.1785 30.1857 21.8928C30.3 19.9249 30.2786 17.9714 30.2786 15.9999V15.9999ZM16 23.3249C11.9465 23.3249 8.67503 20.0535 8.67503 15.9999C8.67503 11.9464 11.9465 8.67494 16 8.67494C20.0536 8.67494 23.325 11.9464 23.325 15.9999C23.325 20.0535 20.0536 23.3249 16 23.3249ZM23.625 10.0857C22.6786 10.0857 21.9143 9.32137 21.9143 8.37494C21.9143 7.42851 22.6786 6.66423 23.625 6.66423C24.5715 6.66423 25.3357 7.42851 25.3357 8.37494C25.336 8.59967 25.292 8.82225 25.2061 9.02993C25.1202 9.23762 24.9942 9.42632 24.8353 9.58523C24.6764 9.74414 24.4877 9.87014 24.28 9.95601C24.0723 10.0419 23.8498 10.0859 23.625 10.0857V10.0857Z" fill="#C13584"/>
</svg>
