<svg width="32" height="32" viewBox="0 0 32 32" fill="none" xmlns="http://www.w3.org/2000/svg">
<path d="M29.1429 1.71423H2.85721C2.22507 1.71423 1.71436 2.22495 1.71436 2.85709V29.1428C1.71436 29.7749 2.22507 30.2857 2.85721 30.2857H29.1429C29.7751 30.2857 30.2858 29.7749 30.2858 29.1428V2.85709C30.2858 2.22495 29.7751 1.71423 29.1429 1.71423ZM10.1894 26.0607H5.95007V12.4249H10.1894V26.0607ZM8.0715 10.5607C7.58552 10.5607 7.11046 10.4166 6.70638 10.1466C6.30231 9.87656 5.98737 9.49281 5.80139 9.04383C5.61542 8.59484 5.56676 8.10079 5.66157 7.62415C5.75638 7.14752 5.9904 6.70969 6.33404 6.36606C6.67767 6.02242 7.11549 5.7884 7.59213 5.69359C8.06877 5.59878 8.56282 5.64744 9.01181 5.83342C9.46079 6.01939 9.84454 6.33433 10.1145 6.7384C10.3845 7.14248 10.5286 7.61754 10.5286 8.10352C10.5251 9.46066 9.42507 10.5607 8.0715 10.5607ZM26.0608 26.0607H21.8251V19.4285C21.8251 17.8464 21.7965 15.8142 19.6215 15.8142C17.4179 15.8142 17.0786 17.5357 17.0786 19.3142V26.0607H12.8465V12.4249H16.9108V14.2892H16.9679C17.5322 13.2178 18.9144 12.0857 20.9786 12.0857C25.2715 12.0857 26.0608 14.9107 26.0608 18.5821V26.0607V26.0607Z" fill="#0077B5"/>
</svg>
