<svg width="18" height="18" viewBox="0 0 18 18" fill="none" xmlns="http://www.w3.org/2000/svg">
<path d="M17.6116 17.0778L13.8566 13.3228C15.2341 11.7866 15.9598 9.77464 15.8801 7.71281C15.8003 5.65098 14.9213 3.70111 13.4292 2.27595C11.9371 0.850794 9.94893 0.0622041 7.88561 0.0771119C5.8223 0.0920197 3.84576 0.909256 2.37439 2.35583C0.903017 3.8024 0.0523062 5.76476 0.00233253 7.82753C-0.0476411 9.8903 0.707045 11.8916 2.10664 13.4077C3.50623 14.9238 5.44088 15.8358 7.50105 15.9506C9.56123 16.0654 11.5852 15.374 13.1446 14.0228L16.9046 17.7828C16.9989 17.8739 17.1252 17.9243 17.2563 17.9231C17.3874 17.922 17.5128 17.8694 17.6055 17.7767C17.6982 17.684 17.7508 17.5586 17.7519 17.4275C17.7531 17.2964 17.7027 17.1701 17.6116 17.0758V17.0778ZM0.984608 8.01178C0.984608 6.63523 1.3928 5.28958 2.15758 4.14501C2.92235 3.00045 4.00936 2.10837 5.28113 1.58158C6.5529 1.0548 7.95233 0.916965 9.30244 1.18552C10.6525 1.45407 11.8927 2.11695 12.8661 3.09032C13.8394 4.06369 14.5023 5.30385 14.7709 6.65395C15.0394 8.00406 14.9016 9.40349 14.3748 10.6753C13.848 11.947 12.9559 13.034 11.8114 13.7988C10.6668 14.5636 9.32117 14.9718 7.94461 14.9718C6.09935 14.9697 4.33028 14.2357 3.02548 12.9309C1.72069 11.6261 0.986725 9.85704 0.984608 8.01178V8.01178Z" fill="#000033"/>
</svg>
