<?xml version="1.0" encoding="UTF-8" standalone="no"?>
<!DOCTYPE svg PUBLIC "-//W3C//DTD SVG 1.1//EN" "http://www.w3.org/Graphics/SVG/1.1/DTD/svg11.dtd">
<!-- Created with Vectornator (http://vectornator.io/) -->
<svg height="100%" stroke-miterlimit="10" style="fill-rule:nonzero;clip-rule:evenodd;stroke-linecap:round;stroke-linejoin:round;" version="1.1" viewBox="0 0 30 30" width="100%" xml:space="preserve" xmlns="http://www.w3.org/2000/svg" xmlns:vectornator="http://vectornator.io" xmlns:xlink="http://www.w3.org/1999/xlink">
<defs/>
<g id="Untitled" vectornator:layerName="Untitled">
<g opacity="1">
<path d="M9.45844 13.4167L4.80819 13.4167C3.75837 13.4167 2.75155 12.9996 2.00922 12.2573C1.26689 11.515 0.849854 10.5081 0.849854 9.45832L0.849854 4.80965C0.849854 3.75984 1.26689 2.75302 2.00922 2.01069C2.75155 1.26836 3.75837 0.851318 4.80819 0.851318L9.45844 0.851318C10.5083 0.851318 11.5151 1.26836 12.2574 2.01069C12.9997 2.75302 13.4168 3.75984 13.4168 4.80965L13.4168 9.45832C13.4168 10.5081 12.9997 11.515 12.2574 12.2573C11.5151 12.9996 10.5083 13.4167 9.45844 13.4167ZM4.80819 2.43465C4.1783 2.43465 3.57421 2.68487 3.12881 3.13027C2.68341 3.57567 2.43319 4.17976 2.43319 4.80965L2.43319 9.45832C2.43319 10.0882 2.68341 10.6923 3.12881 11.1377C3.57421 11.5831 4.1783 11.8333 4.80819 11.8333L9.45844 11.8333C10.0883 11.8333 10.6924 11.5831 11.1378 11.1377C11.5832 10.6923 11.8334 10.0882 11.8334 9.45832L11.8334 4.80965C11.8334 4.17976 11.5832 3.57567 11.1378 3.13027C10.6924 2.68487 10.0883 2.43465 9.45844 2.43465L4.80819 2.43465Z" fill="#000033" fill-rule="nonzero" opacity="1" stroke="none"/>
<path d="M25.1905 13.4167L20.5418 13.4167C19.492 13.4167 18.4852 12.9996 17.7429 12.2573C17.0005 11.515 16.5835 10.5081 16.5835 9.45832L16.5835 4.80965C16.5835 3.75984 17.0005 2.75302 17.7429 2.01069C18.4852 1.26836 19.492 0.851318 20.5418 0.851318L25.1873 0.851318C25.7071 0.851318 26.2219 0.953704 26.7021 1.15263C27.1824 1.35155 27.6187 1.64312 27.9863 2.01069C28.3539 2.37825 28.6454 2.81462 28.8444 3.29486C29.0433 3.77511 29.1457 4.28984 29.1457 4.80965L29.1457 9.45832C29.1457 10.5076 28.7291 11.5139 27.9874 12.2562C27.2458 12.9984 26.2398 13.4158 25.1905 13.4167ZM20.5418 2.43465C19.9119 2.43465 19.3078 2.68487 18.8625 3.13027C18.4171 3.57567 18.1668 4.17976 18.1668 4.80965L18.1668 9.45832C18.1668 10.0882 18.4171 10.6923 18.8625 11.1377C19.3078 11.5831 19.9119 11.8333 20.5418 11.8333L25.1873 11.8333C25.8172 11.8333 26.4213 11.5831 26.8667 11.1377C27.3121 10.6923 27.5623 10.0882 27.5623 9.45832L27.5623 4.80965C27.5623 4.17976 27.3121 3.57567 26.8667 3.13027C26.4213 2.68487 25.8172 2.43465 25.1873 2.43465L20.5418 2.43465Z" fill="#000033" fill-rule="nonzero" opacity="1" stroke="none"/>
<path d="M9.45832 29.1486L4.80965 29.1486C3.75984 29.1486 2.75302 28.7315 2.01069 27.9892C1.26836 27.2469 0.851318 26.2401 0.851318 25.1903L0.851318 20.5416C0.851318 19.4918 1.26836 18.485 2.01069 17.7426C2.75302 17.0003 3.75984 16.5833 4.80965 16.5833L9.45832 16.5833C10.5081 16.5833 11.515 17.0003 12.2573 17.7426C12.9996 18.485 13.4167 19.4918 13.4167 20.5416L13.4167 25.1903C13.4167 26.2401 12.9996 27.2469 12.2573 27.9892C11.515 28.7315 10.5081 29.1486 9.45832 29.1486ZM4.80965 18.1666C4.17976 18.1666 3.57567 18.4168 3.13027 18.8622C2.68487 19.3076 2.43465 19.9117 2.43465 20.5416L2.43465 25.1903C2.43465 25.8201 2.68487 26.4242 3.13027 26.8696C3.57567 27.315 4.17976 27.5653 4.80965 27.5653L9.45832 27.5653C10.0882 27.5653 10.6923 27.315 11.1377 26.8696C11.5831 26.4242 11.8333 25.8201 11.8333 25.1903L11.8333 20.5416C11.8333 19.9117 11.5831 19.3076 11.1377 18.8622C10.6923 18.4168 10.0882 18.1666 9.45832 18.1666L4.80965 18.1666Z" fill="#000033" fill-rule="nonzero" opacity="1" stroke="none"/>
<path d="M25.1905 29.1486L20.5418 29.1486C19.492 29.1486 18.4852 28.7315 17.7429 27.9892C17.0005 27.2469 16.5835 26.2401 16.5835 25.1903L16.5835 20.5416C16.5835 19.4918 17.0005 18.485 17.7429 17.7426C18.4852 17.0003 19.492 16.5833 20.5418 16.5833L25.1873 16.5833C25.7071 16.5833 26.2219 16.6856 26.7021 16.8846C27.1824 17.0835 27.6187 17.3751 27.9863 17.7426C28.3539 18.1102 28.6454 18.5465 28.8444 19.0268C29.0433 19.507 29.1457 20.0218 29.1457 20.5416L29.1457 25.1903C29.1457 26.2395 28.7291 27.2459 27.9874 27.9881C27.2458 28.7303 26.2398 29.1477 25.1905 29.1486ZM20.5418 18.1666C19.9119 18.1666 19.3078 18.4168 18.8625 18.8622C18.4171 19.3076 18.1668 19.9117 18.1668 20.5416L18.1668 25.1903C18.1668 25.8201 18.4171 26.4242 18.8625 26.8696C19.3078 27.315 19.9119 27.5653 20.5418 27.5653L25.1873 27.5653C25.8172 27.5653 26.4213 27.315 26.8667 26.8696C27.3121 26.4242 27.5623 25.8201 27.5623 25.1903L27.5623 20.5416C27.5623 19.9117 27.3121 19.3076 26.8667 18.8622C26.4213 18.4168 25.8172 18.1666 25.1873 18.1666L20.5418 18.1666Z" fill="#000033" fill-rule="nonzero" opacity="1" stroke="none"/>
</g>
</g>
</svg>
