<svg width="189" height="66" viewBox="0 0 189 66" fill="none" xmlns="http://www.w3.org/2000/svg">
<path d="M21 30.4713C23.45 30.4713 25.6594 29.9338 27.6281 28.8587C29.5969 27.7852 31.15 26.3694 32.2875 24.6115C30.7562 23.4786 29.0281 22.609 27.1031 22.0027C25.1781 21.3979 23.1438 21.0955 21 21.0955C18.8563 21.0955 16.8219 21.3979 14.8969 22.0027C12.9719 22.609 11.2437 23.4786 9.7125 24.6115C10.85 26.3694 12.4031 27.7852 14.3719 28.8587C16.3406 29.9338 18.55 30.4713 21 30.4713ZM21 18.7516C22.4438 18.7516 23.6801 18.2922 24.7091 17.3734C25.7364 16.4561 26.25 15.3529 26.25 14.0637C26.25 12.7745 25.7364 11.6713 24.7091 10.754C23.6801 9.83521 22.4438 9.3758 21 9.3758C19.5563 9.3758 18.3208 9.83521 17.2935 10.754C16.2645 11.6713 15.75 12.7745 15.75 14.0637C15.75 15.3529 16.2645 16.4561 17.2935 17.3734C18.3208 18.2922 19.5563 18.7516 21 18.7516ZM21 40.6675C26.3375 36.2921 30.2969 32.3168 32.8781 28.7415C35.4594 25.1678 36.75 21.9941 36.75 19.2204C36.75 14.9622 35.2292 11.4752 32.1877 8.75934C29.148 6.04504 25.4188 4.6879 21 4.6879C16.5813 4.6879 12.8511 6.04504 9.80962 8.75934C6.76988 11.4752 5.25 14.9622 5.25 19.2204C5.25 21.9941 6.54063 25.1678 9.12187 28.7415C11.7031 32.3168 15.6625 36.2921 21 40.6675ZM21 46C20.65 46 20.3 45.9414 19.95 45.8242C19.6 45.707 19.2938 45.5507 19.0312 45.3554C12.6438 40.3159 7.875 35.6382 4.725 31.3222C1.575 27.0046 0 22.9707 0 19.2204C0 13.3605 2.11138 8.69214 6.33413 5.21529C10.5551 1.73843 15.4438 0 21 0C26.5562 0 31.4449 1.73843 35.6659 5.21529C39.8886 8.69214 42 13.3605 42 19.2204C42 22.9707 40.425 27.0046 37.275 31.3222C34.125 35.6382 29.3563 40.3159 22.9688 45.3554C22.7063 45.5507 22.4 45.707 22.05 45.8242C21.7 45.9414 21.35 46 21 46Z" fill="#00265D"/>
<path d="M64.5554 26H59.9656V18.6514H55.1682V26H50.5906V8.15332H55.1682V14.8306H59.9656V8.15332H64.5554V26ZM81.7307 8.15332V19.3594C81.7307 20.7998 81.4662 22.0368 80.9373 23.0703C80.4164 24.0957 79.6392 24.881 78.6057 25.4263C77.5803 25.9715 76.2986 26.2441 74.7605 26.2441C72.5551 26.2441 70.8665 25.6663 69.6946 24.5107C68.5227 23.3551 67.9368 21.6746 67.9368 19.4692V8.15332H72.5144V19.1641C72.5144 20.3034 72.7097 21.1213 73.1003 21.6177C73.491 22.1141 74.0647 22.3623 74.8215 22.3623C75.3668 22.3623 75.8103 22.2565 76.1521 22.0449C76.502 21.8252 76.7543 21.4793 76.9089 21.0073C77.0717 20.5272 77.1531 19.9046 77.1531 19.1396V8.15332H81.7307ZM92.4973 26L89.0916 13.5244H88.9939C89.0264 13.9476 89.059 14.4277 89.0916 14.9648C89.1241 15.502 89.1526 16.0553 89.177 16.625C89.2096 17.1865 89.2258 17.7277 89.2258 18.2485V26H85.0876V8.15332H91.24L94.5481 19.9697H94.6335L97.905 8.15332H104.045V26H99.7727V18.1753C99.7727 17.6626 99.7808 17.1296 99.7971 16.5762C99.8134 16.0146 99.8337 15.4694 99.8582 14.9404C99.8907 14.4115 99.9192 13.9435 99.9436 13.5366H99.8459L96.4524 26H92.4973ZM107.5 8.15332H113.261C115.589 8.15332 117.274 8.52767 118.315 9.27637C119.365 10.0169 119.89 11.1237 119.89 12.5967C119.89 13.321 119.768 13.9557 119.524 14.501C119.28 15.0462 118.962 15.4897 118.572 15.8315C118.181 16.1652 117.758 16.3971 117.302 16.5273V16.6494C117.847 16.804 118.34 17.04 118.779 17.3574C119.219 17.6748 119.568 18.1102 119.829 18.6636C120.089 19.217 120.219 19.9209 120.219 20.7754C120.219 21.8577 119.963 22.7896 119.45 23.5708C118.938 24.3521 118.209 24.9543 117.265 25.3774C116.321 25.7925 115.194 26 113.884 26H107.5V8.15332ZM112.065 15.0503H113.286C113.969 15.0503 114.462 14.8916 114.763 14.5742C115.072 14.2487 115.227 13.8174 115.227 13.2803C115.227 12.7676 115.06 12.381 114.726 12.1206C114.393 11.8521 113.884 11.7178 113.2 11.7178H112.065V15.0503ZM112.065 18.4805V22.3623H113.493C114.218 22.3623 114.734 22.1873 115.044 21.8374C115.361 21.4875 115.52 21.0073 115.52 20.397C115.52 20.0308 115.451 19.7052 115.312 19.4204C115.174 19.1274 114.95 18.8996 114.641 18.7368C114.332 18.5659 113.925 18.4805 113.42 18.4805H112.065ZM132.793 26H123.076V8.15332H132.793V11.9009H127.641V14.8916H132.414V18.6514H127.641V22.1914H132.793V26ZM141.02 8.15332C142.534 8.15332 143.795 8.3527 144.804 8.75146C145.814 9.14209 146.566 9.72803 147.063 10.5093C147.567 11.2824 147.82 12.2549 147.82 13.4268C147.82 14.1348 147.71 14.7858 147.49 15.3799C147.278 15.9658 146.965 16.4989 146.55 16.979C146.143 17.451 145.647 17.866 145.061 18.2241L149.614 26H144.487L141.142 19.4204H140.215V26H135.649V8.15332H141.02ZM140.959 11.7544H140.215V15.9292H140.923C141.614 15.9292 142.16 15.7542 142.558 15.4043C142.965 15.0462 143.169 14.4603 143.169 13.6465C143.169 13.0361 142.99 12.5682 142.632 12.2427C142.282 11.9172 141.724 11.7544 140.959 11.7544Z" fill="#00265D"/>
<path d="M57.9026 35.5072C57.4062 35.5072 56.9586 35.6333 56.5598 35.8856C56.1692 36.1298 55.8355 36.4878 55.5588 36.9598C55.2821 37.4237 55.0706 37.9934 54.9241 38.6688C54.7857 39.3361 54.7166 40.093 54.7166 40.9393C54.7166 42.0949 54.8427 43.0674 55.095 43.8568C55.3472 44.6381 55.7257 45.2281 56.2302 45.6268C56.7429 46.0175 57.3818 46.2128 58.1467 46.2128C58.8466 46.2128 59.518 46.1029 60.1609 45.8832C60.8119 45.6635 61.467 45.399 62.1262 45.0897V49.0448C61.4345 49.3866 60.7102 49.6348 59.9534 49.7894C59.1965 49.9522 58.3949 50.0336 57.5486 50.0336C55.8396 50.0336 54.4277 49.6633 53.3127 48.9227C52.1978 48.1822 51.3637 47.1324 50.8103 45.7733C50.2651 44.4061 49.9924 42.7867 49.9924 40.9149C49.9924 39.5559 50.1674 38.3148 50.5173 37.1918C50.8673 36.0606 51.3718 35.084 52.031 34.2621C52.6983 33.4401 53.5121 32.8054 54.4724 32.3578C55.4408 31.9102 56.5395 31.6864 57.7683 31.6864C58.5984 31.6864 59.4407 31.7881 60.2952 31.9916C61.1578 32.1869 62.0001 32.5043 62.822 32.9437L61.5037 36.6058C60.934 36.2885 60.3562 36.028 59.7703 35.8246C59.1843 35.613 58.5618 35.5072 57.9026 35.5072ZM78.9719 31.9427V43.1488C78.9719 44.5892 78.7074 45.8262 78.1785 46.8597C77.6576 47.8851 76.8805 48.6705 75.8469 49.2157C74.8215 49.7609 73.5398 50.0336 72.0017 50.0336C69.7963 50.0336 68.1077 49.4558 66.9358 48.3002C65.7639 47.1446 65.178 45.4641 65.178 43.2587V31.9427H69.7556V42.9535C69.7556 44.0928 69.9509 44.9107 70.3416 45.4071C70.7322 45.9035 71.3059 46.1517 72.0627 46.1517C72.608 46.1517 73.0515 46.0459 73.3933 45.8344C73.7432 45.6146 73.9955 45.2688 74.1501 44.7968C74.3129 44.3166 74.3943 43.6941 74.3943 42.9291V31.9427H78.9719ZM87.7 31.9427C89.2136 31.9427 90.475 32.1421 91.4841 32.5409C92.4932 32.9315 93.246 33.5175 93.7424 34.2987C94.247 35.0718 94.4993 36.0443 94.4993 37.2162C94.4993 37.9242 94.3894 38.5752 94.1697 39.1693C93.9581 39.7552 93.6448 40.2883 93.2297 40.7684C92.8228 41.2404 92.3264 41.6555 91.7405 42.0135L96.2937 49.7894H91.1667L87.822 43.2098H86.8943V49.7894H82.3289V31.9427H87.7ZM87.6389 35.5438H86.8943V39.7186H87.6023C88.294 39.7186 88.8393 39.5437 89.238 39.1937C89.6449 38.8357 89.8484 38.2497 89.8484 37.4359C89.8484 36.8256 89.6694 36.3576 89.3113 36.0321C88.9613 35.7066 88.4039 35.5438 87.6389 35.5438ZM103.178 31.9427C104.692 31.9427 105.954 32.1421 106.963 32.5409C107.972 32.9315 108.725 33.5175 109.221 34.2987C109.726 35.0718 109.978 36.0443 109.978 37.2162C109.978 37.9242 109.868 38.5752 109.648 39.1693C109.437 39.7552 109.123 40.2883 108.708 40.7684C108.301 41.2404 107.805 41.6555 107.219 42.0135L111.772 49.7894H106.645L103.301 43.2098H102.373V49.7894H97.8074V31.9427H103.178ZM103.117 35.5438H102.373V39.7186H103.081C103.773 39.7186 104.318 39.5437 104.717 39.1937C105.123 38.8357 105.327 38.2497 105.327 37.4359C105.327 36.8256 105.148 36.3576 104.79 36.0321C104.44 35.7066 103.882 35.5438 103.117 35.5438ZM123.003 49.7894H113.286V31.9427H123.003V35.6903H117.851V38.681H122.624V42.4408H117.851V45.9808H123.003V49.7894ZM141.289 49.7894H135.564L129.875 37.8632H129.765C129.814 38.3677 129.851 38.8926 129.875 39.4379C129.908 39.9831 129.932 40.5121 129.948 41.0248C129.973 41.5375 129.985 41.9932 129.985 42.392V49.7894H125.859V31.9427H131.548L137.224 43.6371H137.309C137.277 43.1488 137.248 42.6483 137.224 42.1356C137.199 41.6148 137.179 41.1102 137.163 40.6219C137.147 40.1337 137.138 39.6942 137.138 39.3036V31.9427H141.289V49.7894ZM151.97 49.7894H147.417V35.7635H143.559V31.9427H155.815V35.7635H151.97V49.7894Z" fill="#00265D"/>
</svg>
