<svg width="52" height="52" viewBox="0 0 52 52" fill="none" xmlns="http://www.w3.org/2000/svg">
<rect x="52" y="52" width="52" height="52" rx="26" transform="rotate(-180 52 52)" fill="#000033"/>
<path d="M21.9917 26.7583C21.8913 26.6592 21.8116 26.5411 21.7572 26.4109C21.7029 26.2808 21.6749 26.1411 21.6749 26C21.6749 25.8589 21.7029 25.7193 21.7572 25.5891C21.8116 25.4589 21.8913 25.3408 21.9917 25.2417L28.4917 18.7417C28.6935 18.5439 28.9652 18.4338 29.2478 18.4352C29.5303 18.4366 29.8009 18.5495 30.0007 18.7493C30.2005 18.9491 30.3134 19.2197 30.3148 19.5023C30.3162 19.7848 30.2061 20.0565 30.0083 20.2583L24.2883 26L30.0083 31.7417C30.2061 31.9435 30.3162 32.2152 30.3148 32.4978C30.3134 32.7803 30.2005 33.0509 30.0007 33.2507C29.8009 33.4505 29.5303 33.5634 29.2478 33.5648C28.9652 33.5663 28.6935 33.4561 28.4917 33.2583L21.9917 26.7583Z" fill="white"/>
<path d="M26 47.5215C21.7434 47.5215 17.5825 46.2593 14.0433 43.8945C10.5041 41.5297 7.74564 38.1685 6.11672 34.2359C4.48781 30.3034 4.06162 25.9761 4.89203 21.8014C5.72244 17.6266 7.77216 13.7919 10.782 10.782C13.7918 7.77218 17.6266 5.72245 21.8014 4.89204C25.9761 4.06163 30.3034 4.48783 34.2359 6.11674C38.1685 7.74565 41.5297 10.5041 43.8945 14.0433C46.2593 17.5825 47.5215 21.7435 47.5215 26C47.5152 31.7059 45.2457 37.1763 41.211 41.211C37.1763 45.2457 31.7059 47.5152 26 47.5215V47.5215ZM26 6.64518C22.172 6.64518 18.4299 7.78032 15.247 9.90705C12.0641 12.0338 9.58338 15.0566 8.11846 18.5932C6.65354 22.1299 6.27025 26.0215 7.01706 29.776C7.76387 33.5304 9.60724 36.9791 12.3141 39.6859C15.0209 42.3928 18.4696 44.2361 22.2241 44.983C25.9785 45.7298 29.8701 45.3465 33.4068 43.8815C36.9434 42.4166 39.9662 39.9359 42.093 36.753C44.2197 33.5701 45.3548 29.828 45.3548 26C45.3491 20.8686 43.3081 15.9489 39.6796 12.3204C36.0511 8.69192 31.1315 6.65091 26 6.64518V6.64518Z" fill="white"/>
</svg>
