<svg width="52" height="52" viewBox="0 0 52 52" fill="none" xmlns="http://www.w3.org/2000/svg">
<rect width="52" height="52" rx="26" fill="#000033"/>
<path d="M30.0083 25.2417C30.1087 25.3408 30.1884 25.4589 30.2428 25.5891C30.2971 25.7192 30.3251 25.8589 30.3251 26C30.3251 26.1411 30.2971 26.2807 30.2428 26.4109C30.1884 26.5411 30.1087 26.6592 30.0083 26.7583L23.5083 33.2583C23.3065 33.4561 23.0348 33.5662 22.7522 33.5648C22.4697 33.5634 22.1991 33.4505 21.9993 33.2507C21.7995 33.0509 21.6866 32.7803 21.6852 32.4977C21.6838 32.2152 21.7939 31.9435 21.9917 31.7417L27.7117 26L21.9917 20.2583C21.7939 20.0565 21.6838 19.7848 21.6852 19.5022C21.6866 19.2197 21.7995 18.9491 21.9993 18.7493C22.1991 18.5495 22.4697 18.4366 22.7522 18.4352C23.0348 18.4337 23.3065 18.5439 23.5083 18.7417L30.0083 25.2417Z" fill="white"/>
<path d="M26 4.47849C30.2566 4.47849 34.4175 5.7407 37.9567 8.10551C41.4959 10.4703 44.2544 13.8315 45.8833 17.7641C47.5122 21.6966 47.9384 26.0239 47.108 30.1986C46.2776 34.3734 44.2278 38.2081 41.218 41.218C38.2082 44.2278 34.3734 46.2775 30.1986 47.108C26.0239 47.9384 21.6966 47.5122 17.7641 45.8833C13.8315 44.2543 10.4703 41.4959 8.10553 37.9567C5.74071 34.4175 4.4785 30.2565 4.4785 26C4.48481 20.2941 6.75427 14.8237 10.789 10.789C14.8237 6.75426 20.2941 4.48479 26 4.47849V4.47849ZM26 45.3548C29.828 45.3548 33.5701 44.2197 36.753 42.0929C39.9359 39.9662 42.4166 36.9434 43.8815 33.4068C45.3465 29.8701 45.7297 25.9785 44.9829 22.224C44.2361 18.4696 42.3928 15.0209 39.6859 12.3141C36.9791 9.60723 33.5304 7.76386 29.7759 7.01705C26.0215 6.27024 22.1299 6.65353 18.5932 8.11845C15.0566 9.58337 12.0338 12.0641 9.90705 15.247C7.78031 18.4299 6.64517 22.172 6.64517 26C6.6509 31.1314 8.69191 36.0511 12.3204 39.6796C15.9489 43.3081 20.8685 45.3491 26 45.3548V45.3548Z" fill="white"/>
</svg>
