<svg width="266" height="38" viewBox="0 0 266 38" fill="none" xmlns="http://www.w3.org/2000/svg">
<path d="M29.6116 27.0778L25.8566 23.3228C27.2341 21.7866 27.9598 19.7746 27.8801 17.7128C27.8003 15.651 26.9213 13.7011 25.4292 12.276C23.9371 10.8508 21.9489 10.0622 19.8856 10.0771C17.8223 10.092 15.8458 10.9093 14.3744 12.3558C12.903 13.8024 12.0523 15.7648 12.0023 17.8275C11.9524 19.8903 12.707 21.8916 14.1066 23.4077C15.5062 24.9238 17.4409 25.8358 19.5011 25.9506C21.5612 26.0654 23.5852 25.374 25.1446 24.0228L28.9046 27.7828C28.9989 27.8739 29.1252 27.9243 29.2563 27.9231C29.3874 27.922 29.5128 27.8694 29.6055 27.7767C29.6982 27.684 29.7508 27.5586 29.7519 27.4275C29.7531 27.2964 29.7027 27.1701 29.6116 27.0758V27.0778ZM12.9846 18.0118C12.9846 16.6352 13.3928 15.2896 14.1576 14.145C14.9224 13.0004 16.0094 12.1084 17.2811 11.5816C18.5529 11.0548 19.9523 10.917 21.3024 11.1855C22.6525 11.4541 23.8927 12.1169 24.8661 13.0903C25.8394 14.0637 26.5023 15.3038 26.7709 16.654C27.0394 18.0041 26.9016 19.4035 26.3748 20.6753C25.848 21.947 24.9559 23.034 23.8114 23.7988C22.6668 24.5636 21.3212 24.9718 19.9446 24.9718C18.0994 24.9697 16.3303 24.2357 15.0255 22.9309C13.7207 21.6261 12.9867 19.857 12.9846 18.0118Z" fill="#000033"/>
<path d="M53.7598 21.9609C53.7598 22.638 53.5905 23.2161 53.252 23.6953C52.9186 24.1693 52.4499 24.5312 51.8457 24.7812C51.2415 25.0312 50.5306 25.1562 49.7129 25.1562C49.2806 25.1562 48.8717 25.1354 48.4863 25.0938C48.1009 25.0521 47.7467 24.9922 47.4238 24.9141C47.1009 24.8359 46.8171 24.7396 46.5723 24.625V23.3516C46.9629 23.513 47.4395 23.6641 48.002 23.8047C48.5645 23.9401 49.153 24.0078 49.7676 24.0078C50.3405 24.0078 50.8249 23.9323 51.2207 23.7812C51.6165 23.625 51.916 23.4036 52.1191 23.1172C52.3275 22.8255 52.4316 22.4766 52.4316 22.0703C52.4316 21.6797 52.3457 21.3542 52.1738 21.0938C52.002 20.8281 51.7155 20.5885 51.3145 20.375C50.9186 20.1562 50.377 19.9245 49.6895 19.6797C49.2051 19.5078 48.778 19.3203 48.4082 19.1172C48.0384 18.9089 47.7285 18.6745 47.4785 18.4141C47.2285 18.1536 47.0384 17.8516 46.9082 17.5078C46.7832 17.1641 46.7207 16.7708 46.7207 16.3281C46.7207 15.7188 46.8743 15.1979 47.1816 14.7656C47.4941 14.3281 47.9238 13.9948 48.4707 13.7656C49.0228 13.5312 49.6556 13.4141 50.3691 13.4141C50.9785 13.4141 51.541 13.4714 52.0566 13.5859C52.5775 13.7005 53.054 13.8542 53.4863 14.0469L53.0723 15.1875C52.6608 15.0156 52.2233 14.8724 51.7598 14.7578C51.3014 14.6432 50.8275 14.5859 50.3379 14.5859C49.8483 14.5859 49.4342 14.6589 49.0957 14.8047C48.7624 14.9453 48.5072 15.1458 48.3301 15.4062C48.153 15.6667 48.0645 15.9766 48.0645 16.3359C48.0645 16.737 48.1478 17.0703 48.3145 17.3359C48.4863 17.6016 48.7572 17.8385 49.127 18.0469C49.502 18.25 49.9967 18.4635 50.6113 18.6875C51.2832 18.9323 51.8535 19.1927 52.3223 19.4688C52.791 19.7396 53.1478 20.0729 53.3926 20.4688C53.6374 20.8594 53.7598 21.3568 53.7598 21.9609ZM59.5173 16.2812C60.2464 16.2812 60.8714 16.4427 61.3923 16.7656C61.9131 17.0885 62.3115 17.5417 62.5876 18.125C62.8636 18.7031 63.0016 19.3802 63.0016 20.1562V20.9609H57.0876C57.1032 21.9661 57.3532 22.7318 57.8376 23.2578C58.322 23.7839 59.0042 24.0469 59.8845 24.0469C60.4261 24.0469 60.9053 23.9974 61.322 23.8984C61.7386 23.7995 62.1709 23.6536 62.6188 23.4609V24.6016C62.1865 24.7943 61.7568 24.9349 61.3298 25.0234C60.9079 25.112 60.4079 25.1562 59.8298 25.1562C59.0068 25.1562 58.2881 24.9896 57.6735 24.6562C57.0641 24.3177 56.5902 23.8229 56.2516 23.1719C55.9131 22.5208 55.7438 21.724 55.7438 20.7812C55.7438 19.8594 55.8975 19.0625 56.2048 18.3906C56.5173 17.7135 56.9548 17.1927 57.5173 16.8281C58.085 16.4635 58.7516 16.2812 59.5173 16.2812ZM59.5016 17.3438C58.8089 17.3438 58.2568 17.5703 57.8454 18.0234C57.4339 18.4766 57.1891 19.1094 57.111 19.9219H61.6423C61.6371 19.4115 61.5563 18.9635 61.4001 18.5781C61.249 18.1875 61.0173 17.8854 60.7048 17.6719C60.3923 17.4531 59.9912 17.3438 59.5016 17.3438ZM68.7279 16.2969C69.7487 16.2969 70.5065 16.526 71.0013 16.9844C71.4961 17.4427 71.7435 18.1745 71.7435 19.1797V25H70.7982L70.5482 23.7344H70.4857C70.2461 24.0469 69.9961 24.3099 69.7357 24.5234C69.4753 24.7318 69.1732 24.8906 68.8295 25C68.4909 25.1042 68.0742 25.1562 67.5795 25.1562C67.0586 25.1562 66.5951 25.0651 66.1888 24.8828C65.7878 24.7005 65.4701 24.4245 65.2357 24.0547C65.0065 23.6849 64.892 23.2161 64.892 22.6484C64.892 21.7943 65.2305 21.138 65.9076 20.6797C66.5847 20.2214 67.6159 19.9714 69.0013 19.9297L70.4779 19.8672V19.3438C70.4779 18.6042 70.319 18.0859 70.0013 17.7891C69.6836 17.4922 69.2357 17.3438 68.6576 17.3438C68.2097 17.3438 67.7826 17.4089 67.3763 17.5391C66.9701 17.6693 66.5847 17.8229 66.2201 18L65.8216 17.0156C66.2071 16.8177 66.6498 16.6484 67.1498 16.5078C67.6498 16.3672 68.1758 16.2969 68.7279 16.2969ZM70.4623 20.7812L69.1576 20.8359C68.0899 20.8776 67.3373 21.0521 66.8998 21.3594C66.4623 21.6667 66.2435 22.1016 66.2435 22.6641C66.2435 23.1536 66.392 23.5156 66.6888 23.75C66.9857 23.9844 67.3789 24.1016 67.8685 24.1016C68.6289 24.1016 69.2513 23.8906 69.7357 23.4688C70.2201 23.0469 70.4623 22.4141 70.4623 21.5703V20.7812ZM78.626 16.2812C78.7979 16.2812 78.9776 16.2917 79.1651 16.3125C79.3526 16.3281 79.5192 16.3516 79.6651 16.3828L79.501 17.5859C79.3604 17.5495 79.2041 17.5208 79.0323 17.5C78.8604 17.4792 78.6989 17.4688 78.5479 17.4688C78.2041 17.4688 77.8786 17.5391 77.5713 17.6797C77.2692 17.8151 77.0036 18.013 76.7745 18.2734C76.5453 18.5286 76.3656 18.8385 76.2354 19.2031C76.1052 19.5625 76.0401 19.9635 76.0401 20.4062V25H74.7354V16.4375H75.8135L75.9541 18.0156H76.0088C76.1859 17.6979 76.3995 17.4089 76.6495 17.1484C76.8995 16.8828 77.1885 16.6719 77.5166 16.5156C77.85 16.3594 78.2198 16.2812 78.626 16.2812ZM85.032 25.1562C84.2611 25.1562 83.5814 24.9974 82.9929 24.6797C82.4043 24.362 81.946 23.8776 81.6179 23.2266C81.2898 22.5755 81.1257 21.7552 81.1257 20.7656C81.1257 19.7292 81.2976 18.8828 81.6413 18.2266C81.9903 17.5651 82.4695 17.0755 83.0788 16.7578C83.6882 16.4401 84.3809 16.2812 85.157 16.2812C85.584 16.2812 85.9955 16.3255 86.3913 16.4141C86.7924 16.4974 87.1205 16.6042 87.3757 16.7344L86.9851 17.8203C86.7247 17.7161 86.4226 17.6224 86.0788 17.5391C85.7403 17.4557 85.4226 17.4141 85.1257 17.4141C84.532 17.4141 84.0372 17.5417 83.6413 17.7969C83.2507 18.0521 82.9564 18.4271 82.7585 18.9219C82.5658 19.4167 82.4695 20.026 82.4695 20.75C82.4695 21.4427 82.5632 22.0339 82.7507 22.5234C82.9434 23.013 83.2273 23.388 83.6023 23.6484C83.9825 23.9036 84.4564 24.0312 85.0241 24.0312C85.4773 24.0312 85.8861 23.9844 86.2507 23.8906C86.6153 23.7917 86.946 23.6771 87.2429 23.5469V24.7031C86.9564 24.849 86.6361 24.9609 86.282 25.0391C85.933 25.1172 85.5163 25.1562 85.032 25.1562ZM90.891 12.8438V16.4766C90.891 16.6849 90.8858 16.8958 90.8754 17.1094C90.865 17.3177 90.8467 17.5104 90.8207 17.6875H90.9066C91.0837 17.3854 91.3077 17.1328 91.5785 16.9297C91.8546 16.7214 92.1671 16.5651 92.516 16.4609C92.865 16.3516 93.2348 16.2969 93.6254 16.2969C94.3129 16.2969 94.8858 16.4062 95.3441 16.625C95.8077 16.8438 96.154 17.1823 96.3832 17.6406C96.6176 18.099 96.7348 18.6927 96.7348 19.4219V25H95.4535V19.5078C95.4535 18.7943 95.2895 18.2604 94.9613 17.9062C94.6384 17.5521 94.141 17.375 93.4691 17.375C92.8337 17.375 92.3259 17.4974 91.9457 17.7422C91.5707 17.9818 91.2999 18.3359 91.1332 18.8047C90.9717 19.2734 90.891 19.8464 90.891 20.5234V25H89.5941V12.8438H90.891Z" fill="#000033" fill-opacity="0.5"/>
<rect x="0.5" y="0.5" width="264.752" height="37" rx="5.5" stroke="#000033" stroke-opacity="0.5"/>
</svg>
