<svg width="42" height="38" viewBox="0 0 42 38" fill="none" xmlns="http://www.w3.org/2000/svg">
<path d="M29.7366 27.0778L25.9816 23.3228C27.3591 21.7866 28.0848 19.7746 28.0051 17.7128C27.9253 15.651 27.0463 13.7011 25.5542 12.276C24.0621 10.8508 22.0739 10.0622 20.0106 10.0771C17.9473 10.092 15.9708 10.9093 14.4994 12.3558C13.028 13.8024 12.1773 15.7648 12.1273 17.8275C12.0774 19.8903 12.832 21.8916 14.2316 23.4077C15.6312 24.9238 17.5659 25.8358 19.6261 25.9506C21.6862 26.0654 23.7102 25.374 25.2696 24.0228L29.0296 27.7828C29.1239 27.8739 29.2502 27.9243 29.3813 27.9231C29.5124 27.922 29.6378 27.8694 29.7305 27.7767C29.8232 27.684 29.8758 27.5586 29.8769 27.4275C29.8781 27.2964 29.8277 27.1701 29.7366 27.0758V27.0778ZM13.1096 18.0118C13.1096 16.6352 13.5178 15.2896 14.2826 14.145C15.0474 13.0004 16.1344 12.1084 17.4061 11.5816C18.6779 11.0548 20.0773 10.917 21.4274 11.1855C22.7775 11.4541 24.0177 12.1169 24.9911 13.0903C25.9644 14.0637 26.6273 15.3038 26.8959 16.654C27.1644 18.0041 27.0266 19.4035 26.4998 20.6753C25.973 21.947 25.0809 23.034 23.9364 23.7988C22.7918 24.5636 21.4462 24.9718 20.0696 24.9718C18.2244 24.9697 16.4553 24.2357 15.1505 22.9309C13.8457 21.6261 13.1117 19.857 13.1096 18.0118Z" fill="#000033"/>
<rect x="0.625" y="0.5" width="40.752" height="37" rx="5.5" stroke="#000033" stroke-opacity="0.5"/>
</svg>
