<svg width="32" height="32" viewBox="0 0 32 32" fill="none" xmlns="http://www.w3.org/2000/svg">
<path d="M29.1429 1.71423H2.85721C2.22507 1.71423 1.71436 2.22495 1.71436 2.85709V29.1428C1.71436 29.7749 2.22507 30.2857 2.85721 30.2857H29.1429C29.7751 30.2857 30.2858 29.7749 30.2858 29.1428V2.85709C30.2858 2.22495 29.7751 1.71423 29.1429 1.71423ZM23.6894 12.0607C23.7001 12.2285 23.7001 12.4035 23.7001 12.5749C23.7001 17.8178 19.7072 23.8571 12.4108 23.8571C10.1608 23.8571 8.07507 23.2035 6.31793 22.0785C6.63936 22.1142 6.9465 22.1285 7.27507 22.1285C9.13221 22.1285 10.8394 21.4999 12.2001 20.4357C10.4572 20.3999 8.99293 19.2571 8.49293 17.6857C9.10364 17.7749 9.65364 17.7749 10.2822 17.6142C9.38481 17.4319 8.5782 16.9445 7.99941 16.2349C7.42063 15.5252 7.10538 14.6371 7.10721 13.7214V13.6714C7.63221 13.9678 8.25007 14.1499 8.8965 14.1749C8.35308 13.8128 7.90742 13.3221 7.59904 12.7465C7.29066 12.1708 7.12908 11.528 7.12864 10.8749C7.12864 10.1357 7.3215 9.46066 7.66793 8.87495C8.66401 10.1011 9.90697 11.104 11.316 11.8184C12.7251 12.5328 14.2687 12.9426 15.8465 13.0214C15.2858 10.3249 17.3001 8.14281 19.7215 8.14281C20.8644 8.14281 21.8929 8.62138 22.6179 9.39281C23.5144 9.22495 24.3715 8.88923 25.1358 8.43923C24.8394 9.35709 24.2179 10.1321 23.3929 10.6214C24.1929 10.5357 24.9644 10.3142 25.6786 10.0035C25.1394 10.7964 24.4644 11.4999 23.6894 12.0607V12.0607Z" fill="#1DA1F2"/>
</svg>
